<svg width="218" height="39" viewBox="0 0 218 39" fill="none" xmlns="http://www.w3.org/2000/svg">
<g clip-path="url(#clip0_1391_2368)">
<mask id="mask0_1391_2368" style="mask-type:luminance" maskUnits="userSpaceOnUse" x="5" y="5" width="28" height="28">
<path d="M19.1678 32.483C26.5216 32.483 32.483 26.5216 32.483 19.1678C32.483 11.814 26.5216 5.85254 19.1678 5.85254C11.814 5.85254 5.85254 11.814 5.85254 19.1678C5.85254 26.5216 11.814 32.483 19.1678 32.483Z" fill="white"/>
</mask>
<g mask="url(#mask0_1391_2368)">
<path d="M19.1678 32.483C26.5216 32.483 32.483 26.5216 32.483 19.1678C32.483 11.814 26.5216 5.85254 19.1678 5.85254C11.814 5.85254 5.85254 11.814 5.85254 19.1678C5.85254 26.5216 11.814 32.483 19.1678 32.483Z" fill="url(#paint0_linear_1391_2368)"/>
<g style="mix-blend-mode:overlay">
<path d="M21.5547 20.1488L21.5604 20.1601L21.5944 20.1941L44.1191 50.6581L47.9129 47.851L27.4297 20.1601L47.9129 -7.53648L44.1191 -10.3379L21.5944 20.1204L21.5547 20.1488Z" fill="white"/>
</g>
<g filter="url(#filter0_d_1391_2368)">
<path d="M27.4071 20.1488L27.3957 20.1601L27.3674 20.1941L4.83698 50.6581L1.04883 47.851L21.5321 20.1601L1.04883 -7.53648L4.83698 -10.3379L27.3674 20.1204L27.4071 20.1488Z" fill="white"/>
</g>
</g>
<path d="M37.2408 20.2621C36.634 20.2621 36.1463 19.7744 36.1463 19.1676C36.1463 9.80495 28.5303 2.18896 19.1677 2.18896C13.769 2.18896 8.81834 4.66713 5.57459 8.99402C5.21166 9.47604 4.52548 9.57812 4.04345 9.21518C3.56143 8.85224 3.45935 8.16607 3.82229 7.68404C7.48001 2.80141 13.0772 0 19.1677 0C29.7382 0 38.3353 8.59705 38.3353 19.1676C38.3353 19.7744 37.8476 20.2621 37.2408 20.2621Z" fill="url(#paint1_linear_1391_2368)"/>
<path d="M2.69922 6.57227L7.12251 9.52679L3.43643 10.264L2.69922 6.57227Z" fill="url(#paint2_linear_1391_2368)"/>
<path d="M19.1676 38.3353C8.59706 38.3353 0 29.7382 0 19.1677C0 18.5609 0.487696 18.0732 1.09448 18.0732C1.70126 18.0732 2.18896 18.5609 2.18896 19.1677C2.18896 28.5303 9.80495 36.1463 19.1676 36.1463C24.5663 36.1463 29.5169 33.6682 32.7607 29.3413C33.1236 28.8593 33.8098 28.7572 34.2918 29.1201C34.7738 29.4831 34.8759 30.1692 34.513 30.6513C30.8553 35.5339 25.2581 38.3296 19.1676 38.3296V38.3353Z" fill="url(#paint3_linear_1391_2368)"/>
<path d="M35.6362 31.763L31.2129 28.8142L34.899 28.0713L35.6362 31.763Z" fill="url(#paint4_linear_1391_2368)"/>
<mask id="mask1_1391_2368" style="mask-type:luminance" maskUnits="userSpaceOnUse" x="44" y="10" width="13" height="19">
<path d="M46.4102 11.7393C45.327 12.6296 44.7883 13.8546 44.7883 15.4197C44.7883 16.1683 44.9187 16.8091 45.1739 17.3421C45.4291 17.8752 45.775 18.3346 46.1947 18.7145C46.62 19.1001 47.1077 19.4177 47.6691 19.6729C48.2249 19.9337 48.8033 20.1662 49.4044 20.3874C50.0055 20.5859 50.5329 20.79 51.0036 20.9999C51.4686 21.2097 51.8656 21.4309 52.1888 21.6747C52.512 21.9185 52.7616 22.1851 52.9374 22.4856C53.1132 22.7862 53.1982 23.1435 53.1982 23.5574C53.1982 24.255 52.943 24.7994 52.427 25.1793C51.9109 25.5649 51.0887 25.7521 49.9545 25.7521C48.8203 25.7521 47.947 25.6273 47.1871 25.3778C46.4215 25.1283 45.8147 24.8787 45.3667 24.6292L44.4424 27.1981C44.6409 27.3172 44.9074 27.442 45.242 27.5838C45.5766 27.7255 45.9678 27.8616 46.4272 27.9977C46.8865 28.1338 47.4083 28.2416 47.998 28.3323C48.5878 28.423 49.2399 28.4684 49.9545 28.4684C52.0811 28.4684 53.7029 28.0431 54.8088 27.1811C55.9146 26.3248 56.4703 25.1169 56.4703 23.5518C56.4703 22.7352 56.3512 22.0433 56.1187 21.4649C55.8862 20.8921 55.5516 20.3931 55.1093 19.9678C54.667 19.5424 54.1282 19.1795 53.4874 18.8676C52.8466 18.5614 52.1208 18.2552 51.3041 17.9546C50.8391 17.7901 50.4081 17.6144 50.0169 17.4329C49.6256 17.2514 49.2853 17.0529 48.9961 16.8318C48.7069 16.6163 48.48 16.3724 48.3213 16.0946C48.1625 15.8224 48.0831 15.4934 48.0831 15.1078C48.0831 14.4784 48.3213 13.985 48.7919 13.6334C49.2683 13.2818 49.9261 13.1117 50.7768 13.1117C51.4913 13.1117 52.1888 13.1967 52.858 13.3612C53.5328 13.5256 54.1509 13.7695 54.718 14.0871L55.6934 11.5408C55.2114 11.2573 54.5479 10.9964 53.7086 10.7526C52.8693 10.5144 51.9053 10.3896 50.8278 10.3896C48.9677 10.3896 47.4933 10.8376 46.4102 11.7223" fill="white"/>
</mask>
<g mask="url(#mask1_1391_2368)">
<path d="M56.4645 10.4062H44.4365V28.4737H56.4645V10.4062Z" fill="url(#paint5_linear_1391_2368)"/>
</g>
<mask id="mask2_1391_2368" style="mask-type:luminance" maskUnits="userSpaceOnUse" x="59" y="14" width="18" height="15">
<path d="M70.75 14.8972C70.3587 14.9823 69.9901 15.0844 69.6385 15.2091C69.2869 15.3339 68.975 15.47 68.6914 15.6231C68.4079 15.7705 68.1754 15.9123 67.9939 16.0484C67.614 15.6685 67.1319 15.3566 66.5592 15.1241C65.9864 14.8915 65.2492 14.7725 64.3532 14.7725C63.3041 14.7725 62.3117 14.8462 61.3703 14.9993C60.429 15.1467 59.6691 15.3055 59.085 15.4757V28.099H62.1075V17.5682C62.306 17.5342 62.6066 17.4945 63.0035 17.4434C63.4005 17.3924 63.7691 17.3697 64.1037 17.3697C65.0337 17.3697 65.6689 17.676 66.0091 18.2827C66.3494 18.8895 66.5195 19.8763 66.5195 21.2373V28.099H69.5421V20.8857C69.5421 20.3526 69.5194 19.8536 69.4683 19.3886C69.4173 18.9235 69.3266 18.4812 69.1905 18.0672C69.406 17.9198 69.7292 17.7667 70.1659 17.6079C70.5968 17.4491 71.0562 17.3697 71.5382 17.3697C72.4853 17.3697 73.1261 17.676 73.4606 18.2827C73.7952 18.8895 73.9597 19.8763 73.9597 21.2373V28.099H76.9766V20.7666C76.9766 19.8819 76.9085 19.0767 76.7668 18.3338C76.625 17.5966 76.3698 16.9614 75.9955 16.4397C75.6212 15.918 75.1052 15.5097 74.4474 15.2148C73.7896 14.9256 72.9559 14.7781 71.9408 14.7781C71.5439 14.7781 71.1469 14.8178 70.7556 14.9029" fill="white"/>
</mask>
<g mask="url(#mask2_1391_2368)">
<path d="M76.9766 14.7725H59.085V28.099H76.9766V14.7725Z" fill="url(#paint6_linear_1391_2368)"/>
</g>
<mask id="mask3_1391_2368" style="mask-type:luminance" maskUnits="userSpaceOnUse" x="79" y="14" width="12" height="15">
<path d="M83.4349 25.5642C82.9869 25.2863 82.7601 24.793 82.7601 24.0784C82.7601 23.7155 82.8451 23.4093 83.0096 23.1654C83.1741 22.9273 83.3952 22.7401 83.6731 22.604C83.9453 22.4736 84.2572 22.3772 84.5974 22.3318C84.9377 22.2808 85.2723 22.2581 85.6069 22.2581C85.9925 22.2581 86.3384 22.2808 86.656 22.3318C86.9735 22.3829 87.2117 22.4339 87.3818 22.4793V25.8251C86.8998 25.9272 86.191 25.9725 85.2609 25.9725C84.4954 25.9725 83.8886 25.8364 83.4406 25.5585M82.6637 14.92C81.9321 15.0561 81.3764 15.1865 80.9908 15.3169L81.365 17.7611C81.728 17.625 82.2043 17.5116 82.7884 17.4095C83.3725 17.3074 84.0133 17.262 84.7109 17.262C85.2269 17.262 85.6579 17.3301 85.9981 17.4605C86.3384 17.591 86.6106 17.7781 86.8204 18.0219C87.0303 18.2601 87.172 18.5437 87.2571 18.8556C87.3421 19.1731 87.3818 19.502 87.3818 19.8536V20.3527C86.9679 20.2506 86.5766 20.1825 86.208 20.1429C85.845 20.1032 85.4934 20.0805 85.1589 20.0805C84.4443 20.0805 83.7581 20.1485 83.1003 20.2903C82.4425 20.4321 81.8641 20.6646 81.365 20.9878C80.866 21.3111 80.469 21.7307 80.1798 22.2467C79.8906 22.7628 79.7432 23.3923 79.7432 24.1408C79.7432 24.8894 79.8736 25.5812 80.1288 26.1143C80.384 26.6474 80.7412 27.0783 81.2006 27.4129C81.6599 27.7475 82.21 27.9857 82.8621 28.1388C83.5086 28.2862 84.2232 28.3656 85.0057 28.3656C86.1853 28.3656 87.2457 28.2976 88.1871 28.1558C89.1285 28.014 89.8317 27.8949 90.2967 27.7929V19.882C90.2967 19.1164 90.2116 18.4132 90.0358 17.7724C89.86 17.1316 89.5708 16.5872 89.1625 16.1392C88.7542 15.6912 88.2098 15.3396 87.5293 15.0901C86.8488 14.8406 86.0095 14.7158 85.0114 14.7158C84.1778 14.7158 83.3952 14.7839 82.6637 14.9143" fill="white"/>
</mask>
<g mask="url(#mask3_1391_2368)">
<path d="M90.2967 14.7217H79.7432V28.3715H90.2967V14.7217Z" fill="url(#paint7_linear_1391_2368)"/>
</g>
<mask id="mask4_1391_2368" style="mask-type:luminance" maskUnits="userSpaceOnUse" x="93" y="14" width="9" height="15">
<path d="M96.1774 15.0564C95.3041 15.2492 94.5782 15.4534 93.9941 15.6689V28.0938H97.0111V17.6367C97.1585 17.5856 97.425 17.5289 97.7993 17.4609C98.1736 17.3928 98.5252 17.3588 98.8598 17.3588C99.4439 17.3588 99.9542 17.4042 100.397 17.4949C100.839 17.5856 101.185 17.6764 101.434 17.7558L101.956 15.2095C101.809 15.1585 101.604 15.1075 101.355 15.0451C101.105 14.9884 100.85 14.9373 100.584 14.8976C100.317 14.8579 100.051 14.8239 99.7841 14.7956C99.5176 14.7729 99.2851 14.7559 99.0866 14.7559C98.0205 14.7559 97.0564 14.8523 96.1774 15.0451" fill="white"/>
</mask>
<g mask="url(#mask4_1391_2368)">
<path d="M101.956 14.7725H93.9941V28.099H101.956V14.7725Z" fill="url(#paint8_linear_1391_2368)"/>
</g>
<mask id="mask5_1391_2368" style="mask-type:luminance" maskUnits="userSpaceOnUse" x="103" y="11" width="10" height="18">
<path d="M103.896 11.6027V22.9048C103.896 23.7725 103.969 24.538 104.122 25.2129C104.27 25.8877 104.531 26.4604 104.894 26.9368C105.262 27.4132 105.756 27.7704 106.379 28.0199C107.003 28.2695 107.78 28.3942 108.71 28.3942C109.476 28.3942 110.139 28.3148 110.706 28.156C111.273 27.9973 111.733 27.8441 112.079 27.6967L111.58 25.3036C111.33 25.4057 110.995 25.5134 110.57 25.6268C110.145 25.7402 109.657 25.8026 109.113 25.8026C108.313 25.8026 107.746 25.5758 107.417 25.1278C107.083 24.6798 106.918 23.9312 106.918 22.8821V17.5685H111.557V15.0506H106.918V11.1094L103.901 11.6084L103.896 11.6027Z" fill="white"/>
</mask>
<g mask="url(#mask5_1391_2368)">
<path d="M112.079 11.1035H103.896V28.394H112.079V11.1035Z" fill="url(#paint9_linear_1391_2368)"/>
</g>
<mask id="mask6_1391_2368" style="mask-type:luminance" maskUnits="userSpaceOnUse" x="113" y="14" width="13" height="15">
<path d="M117.381 24.6741C116.826 23.9085 116.548 22.8707 116.548 21.5551C116.548 20.2394 116.826 19.23 117.381 18.4758C117.937 17.7159 118.714 17.3416 119.712 17.3416C120.71 17.3416 121.487 17.7216 122.043 18.4758C122.598 19.23 122.882 20.2565 122.882 21.5551C122.882 22.8537 122.604 23.9085 122.043 24.6741C121.487 25.4396 120.71 25.8196 119.712 25.8196C118.714 25.8196 117.937 25.434 117.381 24.6741ZM117.2 15.2094C116.434 15.5326 115.771 15.9976 115.215 16.5931C114.659 17.1942 114.223 17.9144 113.916 18.7537C113.61 19.593 113.457 20.5287 113.457 21.5608C113.457 22.5929 113.61 23.5342 113.916 24.3792C114.223 25.2298 114.654 25.95 115.204 26.5511C115.754 27.1522 116.412 27.6173 117.177 27.9462C117.943 28.2808 118.793 28.4452 119.723 28.4452C120.653 28.4452 121.51 28.2808 122.281 27.9462C123.052 27.6116 123.716 27.1466 124.266 26.5511C124.816 25.9557 125.241 25.2298 125.536 24.3792C125.837 23.5286 125.984 22.5929 125.984 21.5608C125.984 20.5287 125.831 19.593 125.525 18.7537C125.218 17.9144 124.787 17.1942 124.237 16.5931C123.687 15.992 123.029 15.5326 122.253 15.2094C121.481 14.8861 120.636 14.7217 119.718 14.7217C118.799 14.7217 117.96 14.8861 117.2 15.2094Z" fill="white"/>
</mask>
<g mask="url(#mask6_1391_2368)">
<path d="M125.984 14.7217H113.457V28.4452H125.984V14.7217Z" fill="url(#paint10_linear_1391_2368)"/>
</g>
<mask id="mask7_1391_2368" style="mask-type:luminance" maskUnits="userSpaceOnUse" x="129" y="8" width="24" height="21">
<path d="M149.263 28.0938H152.28V15.0451H149.263V28.0938ZM149.462 9.85623C149.093 10.1908 148.912 10.6445 148.912 11.2286C148.912 11.8127 149.093 12.2437 149.462 12.5783C149.83 12.9128 150.267 13.0773 150.783 13.0773C151.299 13.0773 151.713 12.9128 152.082 12.5783C152.45 12.2437 152.632 11.7957 152.632 11.2286C152.632 10.6615 152.45 10.1908 152.082 9.85623C151.719 9.52165 151.282 9.3572 150.783 9.3572C150.284 9.3572 149.825 9.52165 149.462 9.85623ZM130.419 10.1681C129.54 11.1265 129.098 12.4422 129.098 14.1207V28.0938H132.12V17.563H136.861V15.0451H132.12V14.1718C132.12 13.7578 132.16 13.3665 132.245 13.0092C132.33 12.652 132.472 12.3457 132.67 12.0962C132.869 11.8467 133.135 11.6539 133.47 11.5121C133.804 11.3704 134.207 11.3023 134.689 11.3023C135.12 11.3023 135.523 11.342 135.897 11.4271C136.271 11.5121 136.6 11.6199 136.884 11.7503L137.457 9.25512C137.19 9.15871 136.793 9.0453 136.26 8.92054C135.727 8.79578 135.114 8.7334 134.411 8.7334C132.631 8.7334 131.298 9.20975 130.419 10.1681ZM140.502 10.1568C139.623 11.1038 139.18 12.4251 139.18 14.1264V28.0995H142.203V17.5686H146.995V15.0508H142.203V14.1774C142.203 13.3268 142.39 12.6406 142.764 12.1076C143.139 11.5745 143.825 11.308 144.823 11.308C145.203 11.308 145.56 11.342 145.883 11.4101C146.207 11.4781 146.485 11.5518 146.717 11.6369L147.193 9.19274C146.944 9.09066 146.598 8.99426 146.156 8.89218C145.713 8.79011 145.175 8.74474 144.545 8.74474C142.73 8.74474 141.386 9.21542 140.502 10.1681" fill="white"/>
</mask>
<g mask="url(#mask7_1391_2368)">
<path d="M152.626 8.7334H129.098V28.0938H152.626V8.7334Z" fill="url(#paint11_linear_1391_2368)"/>
</g>
<mask id="mask8_1391_2368" style="mask-type:luminance" maskUnits="userSpaceOnUse" x="155" y="14" width="11" height="15">
<path d="M159.193 15.2432C158.393 15.5948 157.719 16.0768 157.157 16.6893C156.601 17.3017 156.17 18.0333 155.87 18.8726C155.569 19.7119 155.422 20.6135 155.422 21.5776C155.422 22.5416 155.552 23.4717 155.819 24.3109C156.085 25.1502 156.488 25.8761 157.027 26.4829C157.565 27.0897 158.252 27.566 159.074 27.9063C159.896 28.2465 160.866 28.4167 161.983 28.4167C162.698 28.4167 163.395 28.3486 164.064 28.2182C164.739 28.0821 165.238 27.9346 165.573 27.7702L165.147 25.275C164.779 25.4224 164.348 25.5472 163.849 25.6493C163.35 25.7514 162.839 25.7967 162.329 25.7967C160.951 25.7967 159.97 25.4168 159.386 24.6625C158.802 23.9083 158.512 22.8762 158.512 21.5833C158.512 20.2903 158.819 19.1901 159.437 18.4529C160.055 17.71 160.951 17.3414 162.131 17.3414C162.63 17.3414 163.1 17.3925 163.543 17.4889C163.985 17.591 164.382 17.7157 164.728 17.8632L165.374 15.3907C164.274 14.9427 163.112 14.7158 161.881 14.7158C160.883 14.7158 159.987 14.8916 159.187 15.2375" fill="white"/>
</mask>
<g mask="url(#mask8_1391_2368)">
<path d="M165.578 14.7217H155.422V28.4225H165.578V14.7217Z" fill="url(#paint12_linear_1391_2368)"/>
</g>
<mask id="mask9_1391_2368" style="mask-type:luminance" maskUnits="userSpaceOnUse" x="167" y="14" width="12" height="15">
<path d="M170.62 19.162C170.75 18.799 170.937 18.4701 171.181 18.1866C171.425 17.903 171.72 17.6762 172.066 17.5004C172.412 17.3246 172.82 17.2396 173.285 17.2396C173.75 17.2396 174.119 17.3189 174.448 17.4777C174.771 17.6365 175.049 17.852 175.27 18.1242C175.497 18.3964 175.667 18.7253 175.78 19.0996C175.899 19.4739 175.956 19.8708 175.956 20.2848H170.342C170.393 19.8992 170.484 19.5306 170.614 19.162M171.017 15.1583C170.285 15.4476 169.633 15.8842 169.072 16.457C168.505 17.0297 168.051 17.7499 167.711 18.6176C167.37 19.4852 167.2 20.489 167.2 21.6402C167.2 22.6212 167.331 23.5229 167.597 24.3452C167.864 25.1674 168.272 25.882 168.816 26.4888C169.366 27.0955 170.064 27.5719 170.915 27.9121C171.765 28.2524 172.763 28.4225 173.909 28.4225C174.357 28.4225 174.799 28.3998 175.23 28.3488C175.661 28.2978 176.064 28.2354 176.438 28.1617C176.812 28.0879 177.141 28.0029 177.436 27.9121C177.725 27.8214 177.958 27.7363 178.122 27.6513L177.725 25.1788C177.374 25.3262 176.897 25.468 176.291 25.6041C175.684 25.7402 175.015 25.8026 174.283 25.8026C173.036 25.8026 172.083 25.5134 171.425 24.9406C170.767 24.3678 170.399 23.5569 170.314 22.5078H178.922C178.939 22.3433 178.95 22.1562 178.962 21.9464C178.967 21.7366 178.973 21.5551 178.973 21.385C178.973 19.1733 178.468 17.5118 177.464 16.3946C176.461 15.2831 175.054 14.7217 173.262 14.7217C172.497 14.7217 171.748 14.8691 171.017 15.1583Z" fill="white"/>
</mask>
<g mask="url(#mask9_1391_2368)">
<path d="M178.979 14.7217H167.2V28.4225H178.979V14.7217Z" fill="url(#paint13_linear_1391_2368)"/>
</g>
<mask id="mask10_1391_2368" style="mask-type:luminance" maskUnits="userSpaceOnUse" x="182" y="14" width="12" height="15">
<path d="M184.439 14.9936C183.509 15.1411 182.749 15.2999 182.171 15.47V28.0934H185.188V17.5625C185.386 17.5285 185.698 17.4888 186.112 17.4378C186.526 17.3867 186.929 17.3641 187.309 17.3641C187.825 17.3641 188.261 17.4321 188.619 17.5739C188.976 17.7156 189.259 17.9368 189.469 18.2487C189.679 18.5549 189.827 18.9576 189.917 19.4453C190.008 19.9386 190.053 20.5284 190.053 21.2316V28.0934H193.07V20.7609C193.07 19.8763 192.985 19.071 192.809 18.3281C192.634 17.5909 192.333 16.9558 191.913 16.434C191.488 15.9123 190.921 15.504 190.207 15.2091C189.492 14.9199 188.602 14.7725 187.536 14.7725C186.407 14.7725 185.375 14.8462 184.439 14.9993" fill="white"/>
</mask>
<g mask="url(#mask10_1391_2368)">
<path d="M193.076 14.7725H182.171V28.099H193.076V14.7725Z" fill="url(#paint14_linear_1391_2368)"/>
</g>
<mask id="mask11_1391_2368" style="mask-type:luminance" maskUnits="userSpaceOnUse" x="195" y="15" width="13" height="14">
<path d="M204.231 15.0449L201.458 19.0429L198.691 15.0449H195.373L199.802 21.4247C199.377 21.9464 198.94 22.4965 198.503 23.0749C198.067 23.6533 197.641 24.2317 197.233 24.8102C196.825 25.3886 196.439 25.9557 196.076 26.5114C195.719 27.0672 195.413 27.5946 195.169 28.0936H198.248C198.617 27.4585 199.076 26.7326 199.638 25.9103C200.199 25.088 200.766 24.3395 201.356 23.659C201.634 24.0049 201.929 24.3678 202.224 24.7591C202.518 25.1504 202.808 25.5417 203.08 25.9387C203.352 26.3356 203.607 26.7156 203.851 27.0842C204.089 27.4471 204.288 27.7874 204.435 28.0936H207.724C207.18 27.0615 206.488 25.9557 205.654 24.7818C204.815 23.608 203.936 22.4454 203.023 21.2942L207.407 15.0449H204.237H204.231Z" fill="white"/>
</mask>
<g mask="url(#mask11_1391_2368)">
<path d="M207.719 15.0449H195.169V28.0936H207.719V15.0449Z" fill="url(#paint15_linear_1391_2368)"/>
</g>
<mask id="mask12_1391_2368" style="mask-type:luminance" maskUnits="userSpaceOnUse" x="209" y="11" width="9" height="18">
<path d="M209.816 11.6027V22.9048C209.816 23.7725 209.89 24.538 210.043 25.2129C210.191 25.8877 210.452 26.4604 210.814 26.9368C211.183 27.4132 211.676 27.7704 212.3 28.0199C212.924 28.2695 213.701 28.3942 214.631 28.3942C215.397 28.3942 216.06 28.3148 216.627 28.156C217.194 27.9973 217.654 27.8441 218 27.6967L217.5 25.3036C217.251 25.4057 216.916 25.5134 216.491 25.6268C216.066 25.7402 215.578 25.8026 215.034 25.8026C214.234 25.8026 213.667 25.5758 213.338 25.1278C213.003 24.6798 212.839 23.9312 212.839 22.8821V17.5685H217.478V15.0506H212.839V11.1094L209.822 11.6084L209.816 11.6027Z" fill="white"/>
</mask>
<g mask="url(#mask12_1391_2368)">
<path d="M218 11.1035H209.816V28.394H218V11.1035Z" fill="url(#paint16_linear_1391_2368)"/>
</g>
</g>
<defs>
<filter id="filter0_d_1391_2368" x="-2.46117" y="-15.7379" width="37.1584" height="71.7961" filterUnits="userSpaceOnUse" color-interpolation-filters="sRGB">
<feFlood flood-opacity="0" result="BackgroundImageFix"/>
<feColorMatrix in="SourceAlpha" type="matrix" values="0 0 0 0 0 0 0 0 0 0 0 0 0 0 0 0 0 0 127 0" result="hardAlpha"/>
<feOffset dx="1.89"/>
<feGaussianBlur stdDeviation="2.7"/>
<feColorMatrix type="matrix" values="0 0 0 0 0 0 0 0 0 0 0 0 0 0 0 0 0 0 0.2 0"/>
<feBlend mode="normal" in2="BackgroundImageFix" result="effect1_dropShadow_1391_2368"/>
<feBlend mode="normal" in="SourceGraphic" in2="effect1_dropShadow_1391_2368" result="shape"/>
</filter>
<linearGradient id="paint0_linear_1391_2368" x1="8.22864" y1="27.4643" x2="31.9556" y2="9.47056" gradientUnits="userSpaceOnUse">
<stop stop-color="#AED038"/>
<stop offset="1" stop-color="#0F85BA"/>
</linearGradient>
<linearGradient id="paint1_linear_1391_2368" x1="2.34219" y1="10.1339" x2="38.3353" y2="10.1339" gradientUnits="userSpaceOnUse">
<stop stop-color="#680FD2"/>
<stop offset="1" stop-color="#EE691E"/>
</linearGradient>
<linearGradient id="paint2_linear_1391_2368" x1="2.34195" y1="8.42097" x2="38.335" y2="8.42097" gradientUnits="userSpaceOnUse">
<stop stop-color="#680FD2"/>
<stop offset="1" stop-color="#EE691E"/>
</linearGradient>
<linearGradient id="paint3_linear_1391_2368" x1="35.9931" y1="28.2071" x2="0" y2="28.2071" gradientUnits="userSpaceOnUse">
<stop stop-color="#680FD2"/>
<stop offset="1" stop-color="#EE691E"/>
</linearGradient>
<linearGradient id="paint4_linear_1391_2368" x1="35.9934" y1="29.92" x2="0.000370793" y2="29.92" gradientUnits="userSpaceOnUse">
<stop stop-color="#680FD2"/>
<stop offset="1" stop-color="#EE691E"/>
</linearGradient>
<linearGradient id="paint5_linear_1391_2368" x1="45.9098" y1="19.392" x2="193.608" y2="19.392" gradientUnits="userSpaceOnUse">
<stop stop-color="#0279AD"/>
<stop offset="0.09" stop-color="#0279AD"/>
<stop offset="0.94" stop-color="#AED038"/>
<stop offset="1" stop-color="#AED038"/>
</linearGradient>
<linearGradient id="paint6_linear_1391_2368" x1="45.9104" y1="21.3878" x2="193.608" y2="21.3878" gradientUnits="userSpaceOnUse">
<stop stop-color="#0279AD"/>
<stop offset="0.09" stop-color="#0279AD"/>
<stop offset="0.94" stop-color="#AED038"/>
<stop offset="1" stop-color="#AED038"/>
</linearGradient>
<linearGradient id="paint7_linear_1391_2368" x1="45.9096" y1="21.5015" x2="193.608" y2="21.5015" gradientUnits="userSpaceOnUse">
<stop stop-color="#0279AD"/>
<stop offset="0.09" stop-color="#0279AD"/>
<stop offset="0.94" stop-color="#AED038"/>
<stop offset="1" stop-color="#AED038"/>
</linearGradient>
<linearGradient id="paint8_linear_1391_2368" x1="45.9096" y1="21.3878" x2="193.608" y2="21.3878" gradientUnits="userSpaceOnUse">
<stop stop-color="#0279AD"/>
<stop offset="0.09" stop-color="#0279AD"/>
<stop offset="0.94" stop-color="#AED038"/>
<stop offset="1" stop-color="#AED038"/>
</linearGradient>
<linearGradient id="paint9_linear_1391_2368" x1="45.9097" y1="19.7037" x2="193.608" y2="19.7037" gradientUnits="userSpaceOnUse">
<stop stop-color="#0279AD"/>
<stop offset="0.09" stop-color="#0279AD"/>
<stop offset="0.94" stop-color="#AED038"/>
<stop offset="1" stop-color="#AED038"/>
</linearGradient>
<linearGradient id="paint10_linear_1391_2368" x1="45.91" y1="21.5355" x2="193.608" y2="21.5355" gradientUnits="userSpaceOnUse">
<stop stop-color="#0279AD"/>
<stop offset="0.09" stop-color="#0279AD"/>
<stop offset="0.94" stop-color="#AED038"/>
<stop offset="1" stop-color="#AED038"/>
</linearGradient>
<linearGradient id="paint11_linear_1391_2368" x1="45.9103" y1="18.3713" x2="193.608" y2="18.3713" gradientUnits="userSpaceOnUse">
<stop stop-color="#0279AD"/>
<stop offset="0.09" stop-color="#0279AD"/>
<stop offset="0.94" stop-color="#AED038"/>
<stop offset="1" stop-color="#AED038"/>
</linearGradient>
<linearGradient id="paint12_linear_1391_2368" x1="45.9103" y1="21.5242" x2="193.608" y2="21.5242" gradientUnits="userSpaceOnUse">
<stop stop-color="#0279AD"/>
<stop offset="0.09" stop-color="#0279AD"/>
<stop offset="0.94" stop-color="#AED038"/>
<stop offset="1" stop-color="#AED038"/>
</linearGradient>
<linearGradient id="paint13_linear_1391_2368" x1="45.9103" y1="21.5242" x2="193.608" y2="21.5242" gradientUnits="userSpaceOnUse">
<stop stop-color="#0279AD"/>
<stop offset="0.09" stop-color="#0279AD"/>
<stop offset="0.94" stop-color="#AED038"/>
<stop offset="1" stop-color="#AED038"/>
</linearGradient>
<linearGradient id="paint14_linear_1391_2368" x1="45.9098" y1="21.3878" x2="193.608" y2="21.3878" gradientUnits="userSpaceOnUse">
<stop stop-color="#0279AD"/>
<stop offset="0.09" stop-color="#0279AD"/>
<stop offset="0.94" stop-color="#AED038"/>
<stop offset="1" stop-color="#AED038"/>
</linearGradient>
<linearGradient id="paint15_linear_1391_2368" x1="45.9102" y1="21.5242" x2="193.608" y2="21.5242" gradientUnits="userSpaceOnUse">
<stop stop-color="#0279AD"/>
<stop offset="0.09" stop-color="#0279AD"/>
<stop offset="0.94" stop-color="#AED038"/>
<stop offset="1" stop-color="#AED038"/>
</linearGradient>
<linearGradient id="paint16_linear_1391_2368" x1="45.9095" y1="19.7037" x2="193.608" y2="19.7037" gradientUnits="userSpaceOnUse">
<stop stop-color="#0279AD"/>
<stop offset="0.09" stop-color="#0279AD"/>
<stop offset="0.94" stop-color="#AED038"/>
<stop offset="1" stop-color="#AED038"/>
</linearGradient>
<clipPath id="clip0_1391_2368">
<rect width="218" height="38.3352" fill="white"/>
</clipPath>
</defs>
</svg>
